<mxfile host="app.diagrams.net" agent="Mozilla/5.0 (Windows NT 10.0; Win64; x64) AppleWebKit/537.36 (KHTML, like Gecko) Chrome/134.0.0.0 Safari/537.36" version="26.1.0">
  <diagram name="Page-1" id="b98fa263-6416-c6ec-5b7d-78bf54ef71d0">
    <mxGraphModel dx="1847" dy="1540" grid="0" gridSize="10" guides="1" tooltips="1" connect="1" arrows="1" fold="1" page="0" pageScale="1.5" pageWidth="1169" pageHeight="826" background="#FFFFFF" math="0" shadow="0">
      <root>
        <mxCell id="0" style=";html=1;" />
        <mxCell id="1" style=";html=1;" parent="0" />
        <mxCell id="OxoNi5qvrJBeRdZsODT2-61" style="edgeStyle=orthogonalEdgeStyle;rounded=0;orthogonalLoop=1;jettySize=auto;html=1;exitX=0.5;exitY=1;exitDx=0;exitDy=0;entryX=0.5;entryY=0;entryDx=0;entryDy=0;fontSize=26;" parent="1" source="303ed1de8c2c98b4-3" target="OxoNi5qvrJBeRdZsODT2-58" edge="1">
          <mxGeometry relative="1" as="geometry" />
        </mxCell>
        <mxCell id="OxoNi5qvrJBeRdZsODT2-62" style="edgeStyle=orthogonalEdgeStyle;rounded=0;orthogonalLoop=1;jettySize=auto;html=1;exitX=0.5;exitY=1;exitDx=0;exitDy=0;entryX=0.5;entryY=0;entryDx=0;entryDy=0;fontSize=26;" parent="1" source="303ed1de8c2c98b4-3" target="OxoNi5qvrJBeRdZsODT2-56" edge="1">
          <mxGeometry relative="1" as="geometry" />
        </mxCell>
        <mxCell id="303ed1de8c2c98b4-3" value="Mars Reconnaisance Orbiter" style="whiteSpace=wrap;html=1;rounded=1;shadow=0;strokeWidth=1;fontSize=26;align=center;fontFamily=CMU Serif;fontSource=https%3A%2F%2Ffont.download%2Ffont%2Fcmu-serif;fontStyle=1" parent="1" vertex="1">
          <mxGeometry x="1899" y="200" width="433" height="40" as="geometry" />
        </mxCell>
        <mxCell id="OxoNi5qvrJBeRdZsODT2-29" style="edgeStyle=orthogonalEdgeStyle;rounded=0;orthogonalLoop=1;jettySize=auto;html=1;exitX=0.5;exitY=1;exitDx=0;exitDy=0;entryX=0.5;entryY=0;entryDx=0;entryDy=0;fontSize=26;" parent="1" source="303ed1de8c2c98b4-5" target="OxoNi5qvrJBeRdZsODT2-16" edge="1">
          <mxGeometry relative="1" as="geometry" />
        </mxCell>
        <mxCell id="wUONexCnlZndCB9AWCZm-4" style="edgeStyle=orthogonalEdgeStyle;rounded=0;orthogonalLoop=1;jettySize=auto;html=1;exitX=0.5;exitY=1;exitDx=0;exitDy=0;entryX=0.5;entryY=0;entryDx=0;entryDy=0;fontSize=26;" parent="1" source="303ed1de8c2c98b4-5" target="wUONexCnlZndCB9AWCZm-1" edge="1">
          <mxGeometry relative="1" as="geometry" />
        </mxCell>
        <mxCell id="wUONexCnlZndCB9AWCZm-16" style="edgeStyle=orthogonalEdgeStyle;rounded=0;orthogonalLoop=1;jettySize=auto;html=1;exitX=0.5;exitY=1;exitDx=0;exitDy=0;fontSize=26;" parent="1" source="303ed1de8c2c98b4-5" target="OxoNi5qvrJBeRdZsODT2-15" edge="1">
          <mxGeometry relative="1" as="geometry" />
        </mxCell>
        <mxCell id="303ed1de8c2c98b4-5" value="Science Ops" style="whiteSpace=wrap;html=1;rounded=1;shadow=0;strokeWidth=1;fontSize=26;align=center;fillColor=#6BE6FF;strokeColor=#666666;fontFamily=CMU Serif;fontSource=https%3A%2F%2Ffont.download%2Ffont%2Fcmu-serif;fontStyle=1" parent="1" vertex="1">
          <mxGeometry x="1727" y="460" width="275" height="40" as="geometry" />
        </mxCell>
        <mxCell id="OxoNi5qvrJBeRdZsODT2-8" style="edgeStyle=orthogonalEdgeStyle;rounded=0;orthogonalLoop=1;jettySize=auto;html=1;exitX=0.5;exitY=1;exitDx=0;exitDy=0;entryX=1;entryY=0.5;entryDx=0;entryDy=0;fontSize=26;" parent="1" source="303ed1de8c2c98b4-7" target="OxoNi5qvrJBeRdZsODT2-7" edge="1">
          <mxGeometry relative="1" as="geometry" />
        </mxCell>
        <mxCell id="OxoNi5qvrJBeRdZsODT2-11" style="edgeStyle=orthogonalEdgeStyle;rounded=0;orthogonalLoop=1;jettySize=auto;html=1;exitX=0.5;exitY=1;exitDx=0;exitDy=0;entryX=1;entryY=0.5;entryDx=0;entryDy=0;fontSize=26;" parent="1" source="303ed1de8c2c98b4-7" target="OxoNi5qvrJBeRdZsODT2-10" edge="1">
          <mxGeometry relative="1" as="geometry" />
        </mxCell>
        <mxCell id="OxoNi5qvrJBeRdZsODT2-13" style="edgeStyle=orthogonalEdgeStyle;rounded=0;orthogonalLoop=1;jettySize=auto;html=1;exitX=0.5;exitY=1;exitDx=0;exitDy=0;entryX=1;entryY=0.5;entryDx=0;entryDy=0;fontSize=26;" parent="1" source="303ed1de8c2c98b4-7" target="OxoNi5qvrJBeRdZsODT2-12" edge="1">
          <mxGeometry relative="1" as="geometry" />
        </mxCell>
        <mxCell id="OxoNi5qvrJBeRdZsODT2-85" style="edgeStyle=orthogonalEdgeStyle;rounded=0;orthogonalLoop=1;jettySize=auto;html=1;exitX=0.5;exitY=1;exitDx=0;exitDy=0;entryX=1;entryY=0.5;entryDx=0;entryDy=0;fontSize=26;" parent="1" source="303ed1de8c2c98b4-7" target="OxoNi5qvrJBeRdZsODT2-84" edge="1">
          <mxGeometry relative="1" as="geometry" />
        </mxCell>
        <mxCell id="OxoNi5qvrJBeRdZsODT2-88" style="edgeStyle=orthogonalEdgeStyle;rounded=0;orthogonalLoop=1;jettySize=auto;html=1;exitX=0.5;exitY=1;exitDx=0;exitDy=0;entryX=1;entryY=0.5;entryDx=0;entryDy=0;fontSize=26;" parent="1" source="303ed1de8c2c98b4-7" target="OxoNi5qvrJBeRdZsODT2-87" edge="1">
          <mxGeometry relative="1" as="geometry" />
        </mxCell>
        <mxCell id="NxvaMUHdAj3nQbAcuZh8-9" style="edgeStyle=orthogonalEdgeStyle;rounded=0;orthogonalLoop=1;jettySize=auto;html=1;exitX=0.5;exitY=1;exitDx=0;exitDy=0;entryX=1;entryY=0.5;entryDx=0;entryDy=0;" parent="1" source="303ed1de8c2c98b4-7" target="NxvaMUHdAj3nQbAcuZh8-8" edge="1">
          <mxGeometry relative="1" as="geometry" />
        </mxCell>
        <mxCell id="NxvaMUHdAj3nQbAcuZh8-13" style="edgeStyle=orthogonalEdgeStyle;rounded=0;orthogonalLoop=1;jettySize=auto;html=1;exitX=0.5;exitY=1;exitDx=0;exitDy=0;entryX=0;entryY=0.5;entryDx=0;entryDy=0;" parent="1" source="303ed1de8c2c98b4-7" target="NxvaMUHdAj3nQbAcuZh8-11" edge="1">
          <mxGeometry relative="1" as="geometry" />
        </mxCell>
        <mxCell id="303ed1de8c2c98b4-7" value="Interplanetary Navigation" style="whiteSpace=wrap;html=1;rounded=1;shadow=0;strokeWidth=1;fontSize=26;align=center;fillColor=#6BE6FF;strokeColor=#666666;fontFamily=CMU Serif;fontSource=https%3A%2F%2Ffont.download%2Ffont%2Fcmu-serif;fontStyle=1" parent="1" vertex="1">
          <mxGeometry x="980" y="460" width="410" height="40" as="geometry" />
        </mxCell>
        <mxCell id="OxoNi5qvrJBeRdZsODT2-18" style="edgeStyle=orthogonalEdgeStyle;rounded=0;orthogonalLoop=1;jettySize=auto;html=1;exitX=0.5;exitY=1;exitDx=0;exitDy=0;entryX=1;entryY=0.5;entryDx=0;entryDy=0;fontSize=26;" parent="1" source="OxoNi5qvrJBeRdZsODT2-15" target="OxoNi5qvrJBeRdZsODT2-17" edge="1">
          <mxGeometry relative="1" as="geometry" />
        </mxCell>
        <mxCell id="OxoNi5qvrJBeRdZsODT2-21" style="edgeStyle=orthogonalEdgeStyle;rounded=0;orthogonalLoop=1;jettySize=auto;html=1;exitX=0.5;exitY=1;exitDx=0;exitDy=0;entryX=0;entryY=0.5;entryDx=0;entryDy=0;fontSize=26;" parent="1" source="OxoNi5qvrJBeRdZsODT2-15" target="OxoNi5qvrJBeRdZsODT2-19" edge="1">
          <mxGeometry relative="1" as="geometry" />
        </mxCell>
        <mxCell id="OxoNi5qvrJBeRdZsODT2-30" style="edgeStyle=orthogonalEdgeStyle;rounded=0;orthogonalLoop=1;jettySize=auto;html=1;exitX=0.5;exitY=1;exitDx=0;exitDy=0;entryX=0;entryY=0.5;entryDx=0;entryDy=0;fontSize=26;" parent="1" source="OxoNi5qvrJBeRdZsODT2-15" target="OxoNi5qvrJBeRdZsODT2-20" edge="1">
          <mxGeometry relative="1" as="geometry" />
        </mxCell>
        <mxCell id="OxoNi5qvrJBeRdZsODT2-32" style="edgeStyle=orthogonalEdgeStyle;rounded=0;orthogonalLoop=1;jettySize=auto;html=1;exitX=0.5;exitY=1;exitDx=0;exitDy=0;entryX=0;entryY=0.5;entryDx=0;entryDy=0;fontSize=26;" parent="1" source="OxoNi5qvrJBeRdZsODT2-15" target="OxoNi5qvrJBeRdZsODT2-31" edge="1">
          <mxGeometry relative="1" as="geometry" />
        </mxCell>
        <mxCell id="OxoNi5qvrJBeRdZsODT2-15" value="Data&amp;nbsp;&lt;span style=&quot;background-color: transparent; color: light-dark(rgb(0, 0, 0), rgb(255, 255, 255));&quot;&gt;handling&lt;/span&gt;" style="whiteSpace=wrap;html=1;rounded=1;shadow=0;strokeWidth=1;fontSize=26;align=center;fillColor=#BBEAFF;strokeColor=#666666;fontFamily=CMU Serif;fontSource=https%3A%2F%2Ffont.download%2Ffont%2Fcmu-serif;" parent="1" vertex="1">
          <mxGeometry x="1755.5" y="576" width="218" height="90" as="geometry" />
        </mxCell>
        <mxCell id="OxoNi5qvrJBeRdZsODT2-44" style="edgeStyle=orthogonalEdgeStyle;rounded=0;orthogonalLoop=1;jettySize=auto;html=1;exitX=0.5;exitY=1;exitDx=0;exitDy=0;entryX=0;entryY=0.5;entryDx=0;entryDy=0;fontSize=26;" parent="1" source="OxoNi5qvrJBeRdZsODT2-16" target="OxoNi5qvrJBeRdZsODT2-42" edge="1">
          <mxGeometry relative="1" as="geometry" />
        </mxCell>
        <mxCell id="OxoNi5qvrJBeRdZsODT2-46" style="edgeStyle=orthogonalEdgeStyle;rounded=0;orthogonalLoop=1;jettySize=auto;html=1;exitX=0.5;exitY=1;exitDx=0;exitDy=0;entryX=0;entryY=0.5;entryDx=0;entryDy=0;fontSize=26;" parent="1" source="OxoNi5qvrJBeRdZsODT2-16" target="OxoNi5qvrJBeRdZsODT2-45" edge="1">
          <mxGeometry relative="1" as="geometry" />
        </mxCell>
        <mxCell id="OxoNi5qvrJBeRdZsODT2-48" style="edgeStyle=orthogonalEdgeStyle;rounded=0;orthogonalLoop=1;jettySize=auto;html=1;exitX=0.5;exitY=1;exitDx=0;exitDy=0;entryX=1;entryY=0.5;entryDx=0;entryDy=0;fontSize=26;" parent="1" source="OxoNi5qvrJBeRdZsODT2-16" target="OxoNi5qvrJBeRdZsODT2-47" edge="1">
          <mxGeometry relative="1" as="geometry" />
        </mxCell>
        <mxCell id="OxoNi5qvrJBeRdZsODT2-50" style="edgeStyle=orthogonalEdgeStyle;rounded=0;orthogonalLoop=1;jettySize=auto;html=1;exitX=0.5;exitY=1;exitDx=0;exitDy=0;entryX=1;entryY=0.5;entryDx=0;entryDy=0;fontSize=26;" parent="1" source="OxoNi5qvrJBeRdZsODT2-16" target="OxoNi5qvrJBeRdZsODT2-49" edge="1">
          <mxGeometry relative="1" as="geometry" />
        </mxCell>
        <mxCell id="OxoNi5qvrJBeRdZsODT2-16" value="Observation state" style="whiteSpace=wrap;html=1;rounded=1;shadow=0;strokeWidth=1;fontSize=26;align=center;fillColor=#BBEAFF;strokeColor=#666666;fontFamily=CMU Serif;fontSource=https%3A%2F%2Ffont.download%2Ffont%2Fcmu-serif;" parent="1" vertex="1">
          <mxGeometry x="2152" y="580" width="354" height="90" as="geometry" />
        </mxCell>
        <mxCell id="OxoNi5qvrJBeRdZsODT2-25" style="edgeStyle=orthogonalEdgeStyle;rounded=0;orthogonalLoop=1;jettySize=auto;html=1;exitX=0.5;exitY=1;exitDx=0;exitDy=0;entryX=1;entryY=0.5;entryDx=0;entryDy=0;fontSize=26;" parent="1" source="OxoNi5qvrJBeRdZsODT2-17" target="OxoNi5qvrJBeRdZsODT2-22" edge="1">
          <mxGeometry relative="1" as="geometry" />
        </mxCell>
        <mxCell id="OxoNi5qvrJBeRdZsODT2-27" style="edgeStyle=orthogonalEdgeStyle;rounded=0;orthogonalLoop=1;jettySize=auto;html=1;exitX=0.5;exitY=1;exitDx=0;exitDy=0;entryX=1;entryY=0.5;entryDx=0;entryDy=0;fontSize=26;" parent="1" source="OxoNi5qvrJBeRdZsODT2-17" target="OxoNi5qvrJBeRdZsODT2-26" edge="1">
          <mxGeometry relative="1" as="geometry" />
        </mxCell>
        <mxCell id="OxoNi5qvrJBeRdZsODT2-17" value="Acquisition" style="whiteSpace=wrap;html=1;rounded=1;shadow=0;strokeWidth=1;fontSize=26;align=center;fillColor=#E6F6FF;strokeColor=#666666;fontFamily=CMU Serif;fontSource=https%3A%2F%2Ffont.download%2Ffont%2Fcmu-serif;" parent="1" vertex="1">
          <mxGeometry x="1662" y="690" width="165" height="90" as="geometry" />
        </mxCell>
        <mxCell id="OxoNi5qvrJBeRdZsODT2-19" value="Storage" style="whiteSpace=wrap;html=1;rounded=1;shadow=0;strokeWidth=1;fontSize=26;align=center;fillColor=#E6F6FF;strokeColor=#666666;fontFamily=CMU Serif;fontSource=https%3A%2F%2Ffont.download%2Ffont%2Fcmu-serif;" parent="1" vertex="1">
          <mxGeometry x="1899" y="690" width="165" height="90" as="geometry" />
        </mxCell>
        <mxCell id="OxoNi5qvrJBeRdZsODT2-20" value="On-board processing" style="whiteSpace=wrap;html=1;rounded=1;shadow=0;strokeWidth=1;fontSize=26;align=center;fillColor=#E6F6FF;strokeColor=#666666;fontFamily=CMU Serif;fontSource=https%3A%2F%2Ffont.download%2Ffont%2Fcmu-serif;" parent="1" vertex="1">
          <mxGeometry x="1899" y="810" width="165" height="90" as="geometry" />
        </mxCell>
        <mxCell id="OxoNi5qvrJBeRdZsODT2-22" value="Atmosphere&lt;div&gt;imaging&lt;/div&gt;" style="whiteSpace=wrap;html=1;rounded=1;shadow=0;strokeWidth=1;fontSize=26;align=center;fontFamily=CMU Serif;fontSource=https%3A%2F%2Ffont.download%2Ffont%2Fcmu-serif;fillColor=light-dark(#fafaff, #242424);strokeColor=default;fontColor=light-dark(#000000, #c1c1c1);gradientColor=none;fillStyle=auto;" parent="1" vertex="1">
          <mxGeometry x="1542" y="800" width="165" height="90" as="geometry" />
        </mxCell>
        <mxCell id="OxoNi5qvrJBeRdZsODT2-26" value="Surface/&lt;div&gt;subsurface imaging&lt;/div&gt;" style="whiteSpace=wrap;html=1;rounded=1;shadow=0;strokeWidth=1;fontSize=26;align=center;fontFamily=CMU Serif;fontSource=https%3A%2F%2Ffont.download%2Ffont%2Fcmu-serif;fillColor=light-dark(#fafaff, #242424);strokeColor=default;fontColor=light-dark(#000000, #c1c1c1);gradientColor=none;fillStyle=auto;" parent="1" vertex="1">
          <mxGeometry x="1542" y="920" width="165" height="110" as="geometry" />
        </mxCell>
        <mxCell id="OxoNi5qvrJBeRdZsODT2-36" style="edgeStyle=orthogonalEdgeStyle;rounded=0;orthogonalLoop=1;jettySize=auto;html=1;exitX=0.5;exitY=1;exitDx=0;exitDy=0;entryX=1;entryY=0.5;entryDx=0;entryDy=0;fontSize=26;strokeColor=default;" parent="1" source="OxoNi5qvrJBeRdZsODT2-31" target="OxoNi5qvrJBeRdZsODT2-35" edge="1">
          <mxGeometry relative="1" as="geometry" />
        </mxCell>
        <mxCell id="OxoNi5qvrJBeRdZsODT2-38" style="edgeStyle=orthogonalEdgeStyle;rounded=0;orthogonalLoop=1;jettySize=auto;html=1;exitX=0.5;exitY=1;exitDx=0;exitDy=0;entryX=1;entryY=0.5;entryDx=0;entryDy=0;fontSize=26;strokeColor=default;" parent="1" source="OxoNi5qvrJBeRdZsODT2-31" target="OxoNi5qvrJBeRdZsODT2-37" edge="1">
          <mxGeometry relative="1" as="geometry" />
        </mxCell>
        <mxCell id="OxoNi5qvrJBeRdZsODT2-41" style="edgeStyle=orthogonalEdgeStyle;rounded=0;orthogonalLoop=1;jettySize=auto;html=1;exitX=0.5;exitY=1;exitDx=0;exitDy=0;entryX=0;entryY=0.5;entryDx=0;entryDy=0;fontSize=26;strokeColor=default;" parent="1" source="OxoNi5qvrJBeRdZsODT2-31" target="OxoNi5qvrJBeRdZsODT2-39" edge="1">
          <mxGeometry relative="1" as="geometry" />
        </mxCell>
        <mxCell id="OxoNi5qvrJBeRdZsODT2-31" value="Data transfer" style="whiteSpace=wrap;html=1;rounded=1;shadow=0;strokeWidth=1;fontSize=26;align=center;fillColor=#E6F6FF;strokeColor=#666666;fontFamily=CMU Serif;fontSource=https%3A%2F%2Ffont.download%2Ffont%2Fcmu-serif;" parent="1" vertex="1">
          <mxGeometry x="1899" y="930" width="165" height="90" as="geometry" />
        </mxCell>
        <mxCell id="OxoNi5qvrJBeRdZsODT2-35" value="Between S/C and Earth" style="whiteSpace=wrap;html=1;rounded=1;shadow=0;strokeWidth=1;fontSize=26;align=center;fontFamily=CMU Serif;fontSource=https%3A%2F%2Ffont.download%2Ffont%2Fcmu-serif;fillColor=light-dark(#fafaff, #242424);fontColor=light-dark(#000000, #c1c1c1);strokeColor=default;gradientColor=none;" parent="1" vertex="1">
          <mxGeometry x="1769.5" y="1050" width="165" height="90" as="geometry" />
        </mxCell>
        <mxCell id="OxoNi5qvrJBeRdZsODT2-37" value="Between subsystems" style="whiteSpace=wrap;html=1;rounded=1;shadow=0;strokeWidth=1;fontSize=26;align=center;fontFamily=CMU Serif;fontSource=https%3A%2F%2Ffont.download%2Ffont%2Fcmu-serif;fillColor=light-dark(#fafaff, #242424);fontColor=light-dark(#000000, #c1c1c1);strokeColor=default;gradientColor=none;" parent="1" vertex="1">
          <mxGeometry x="1769.5" y="1170" width="165" height="90" as="geometry" />
        </mxCell>
        <mxCell id="OxoNi5qvrJBeRdZsODT2-39" value="Between S/C and other S/C" style="whiteSpace=wrap;html=1;rounded=1;shadow=0;strokeWidth=1;fontSize=26;align=center;fontFamily=CMU Serif;fontSource=https%3A%2F%2Ffont.download%2Ffont%2Fcmu-serif;fillColor=light-dark(#fafaff, #242424);fontColor=light-dark(#000000, #c1c1c1);strokeColor=default;gradientColor=none;" parent="1" vertex="1">
          <mxGeometry x="2032" y="1050" width="188" height="90" as="geometry" />
        </mxCell>
        <mxCell id="OxoNi5qvrJBeRdZsODT2-42" value="Orbital&amp;nbsp;&lt;div&gt;station-keeping&lt;/div&gt;" style="whiteSpace=wrap;html=1;rounded=1;shadow=0;strokeWidth=1;fontSize=26;align=center;fillColor=#E6F6FF;strokeColor=#666666;fontFamily=CMU Serif;fontSource=https%3A%2F%2Ffont.download%2Ffont%2Fcmu-serif;" parent="1" vertex="1">
          <mxGeometry x="2372" y="690" width="196" height="90" as="geometry" />
        </mxCell>
        <mxCell id="wUONexCnlZndCB9AWCZm-21" style="edgeStyle=orthogonalEdgeStyle;rounded=0;orthogonalLoop=1;jettySize=auto;html=1;exitX=0.5;exitY=1;exitDx=0;exitDy=0;entryX=0;entryY=0.5;entryDx=0;entryDy=0;fontSize=26;" parent="1" source="OxoNi5qvrJBeRdZsODT2-45" target="OxoNi5qvrJBeRdZsODT2-51" edge="1">
          <mxGeometry relative="1" as="geometry" />
        </mxCell>
        <mxCell id="wUONexCnlZndCB9AWCZm-22" style="edgeStyle=orthogonalEdgeStyle;rounded=0;orthogonalLoop=1;jettySize=auto;html=1;exitX=0.5;exitY=1;exitDx=0;exitDy=0;entryX=0;entryY=0.5;entryDx=0;entryDy=0;fontSize=26;" parent="1" source="OxoNi5qvrJBeRdZsODT2-45" target="OxoNi5qvrJBeRdZsODT2-53" edge="1">
          <mxGeometry relative="1" as="geometry" />
        </mxCell>
        <mxCell id="OxoNi5qvrJBeRdZsODT2-45" value="Power&lt;div&gt;management&lt;/div&gt;" style="whiteSpace=wrap;html=1;rounded=1;shadow=0;strokeWidth=1;fontSize=26;align=center;fillColor=#E6F6FF;strokeColor=#666666;fontFamily=CMU Serif;fontSource=https%3A%2F%2Ffont.download%2Ffont%2Fcmu-serif;" parent="1" vertex="1">
          <mxGeometry x="2372" y="810" width="192" height="90" as="geometry" />
        </mxCell>
        <mxCell id="OxoNi5qvrJBeRdZsODT2-47" value="Attitude&lt;div&gt;control&lt;/div&gt;" style="whiteSpace=wrap;html=1;rounded=1;shadow=0;strokeWidth=1;fontSize=26;align=center;fillColor=#E6F6FF;strokeColor=#666666;fontFamily=CMU Serif;fontSource=https%3A%2F%2Ffont.download%2Ffont%2Fcmu-serif;" parent="1" vertex="1">
          <mxGeometry x="2122" y="690" width="165" height="90" as="geometry" />
        </mxCell>
        <mxCell id="OxoNi5qvrJBeRdZsODT2-49" value="Temperature control" style="whiteSpace=wrap;html=1;rounded=1;shadow=0;strokeWidth=1;fontSize=26;align=center;fillColor=#E6F6FF;strokeColor=#666666;fontFamily=CMU Serif;fontSource=https%3A%2F%2Ffont.download%2Ffont%2Fcmu-serif;" parent="1" vertex="1">
          <mxGeometry x="2122" y="810" width="165" height="90" as="geometry" />
        </mxCell>
        <mxCell id="OxoNi5qvrJBeRdZsODT2-51" value="Generate power" style="whiteSpace=wrap;html=1;rounded=1;shadow=0;strokeWidth=1;fontSize=26;align=center;fillColor=light-dark(#fafaff, #242424);strokeColor=default;fontFamily=CMU Serif;fontSource=https%3A%2F%2Ffont.download%2Ffont%2Fcmu-serif;gradientColor=none;" parent="1" vertex="1">
          <mxGeometry x="2500" y="930" width="165" height="90" as="geometry" />
        </mxCell>
        <mxCell id="OxoNi5qvrJBeRdZsODT2-53" value="Distribute power" style="whiteSpace=wrap;html=1;rounded=1;shadow=0;strokeWidth=1;fontSize=26;align=center;fillColor=light-dark(#fafaff, #242424);strokeColor=default;fontFamily=CMU Serif;fontSource=https%3A%2F%2Ffont.download%2Ffont%2Fcmu-serif;gradientColor=none;" parent="1" vertex="1">
          <mxGeometry x="2500" y="1050" width="165" height="90" as="geometry" />
        </mxCell>
        <mxCell id="OxoNi5qvrJBeRdZsODT2-72" style="edgeStyle=orthogonalEdgeStyle;rounded=0;orthogonalLoop=1;jettySize=auto;html=1;exitX=0.5;exitY=1;exitDx=0;exitDy=0;entryX=0.5;entryY=0;entryDx=0;entryDy=0;fontSize=26;" parent="1" source="OxoNi5qvrJBeRdZsODT2-56" target="OxoNi5qvrJBeRdZsODT2-70" edge="1">
          <mxGeometry relative="1" as="geometry" />
        </mxCell>
        <mxCell id="OxoNi5qvrJBeRdZsODT2-76" style="edgeStyle=orthogonalEdgeStyle;rounded=0;orthogonalLoop=1;jettySize=auto;html=1;exitX=0.5;exitY=1;exitDx=0;exitDy=0;entryX=0.5;entryY=0;entryDx=0;entryDy=0;fontSize=26;" parent="1" source="OxoNi5qvrJBeRdZsODT2-56" target="OxoNi5qvrJBeRdZsODT2-75" edge="1">
          <mxGeometry relative="1" as="geometry" />
        </mxCell>
        <mxCell id="OxoNi5qvrJBeRdZsODT2-59" style="edgeStyle=orthogonalEdgeStyle;rounded=0;orthogonalLoop=1;jettySize=auto;html=1;exitX=0.5;exitY=1;exitDx=0;exitDy=0;entryX=0.5;entryY=0;entryDx=0;entryDy=0;fontSize=26;" parent="1" source="OxoNi5qvrJBeRdZsODT2-58" target="303ed1de8c2c98b4-7" edge="1">
          <mxGeometry relative="1" as="geometry" />
        </mxCell>
        <mxCell id="OxoNi5qvrJBeRdZsODT2-60" style="edgeStyle=orthogonalEdgeStyle;rounded=0;orthogonalLoop=1;jettySize=auto;html=1;exitX=0.5;exitY=1;exitDx=0;exitDy=0;entryX=0.5;entryY=0;entryDx=0;entryDy=0;fontSize=26;" parent="1" source="OxoNi5qvrJBeRdZsODT2-58" target="303ed1de8c2c98b4-5" edge="1">
          <mxGeometry relative="1" as="geometry" />
        </mxCell>
        <mxCell id="wUONexCnlZndCB9AWCZm-18" style="edgeStyle=orthogonalEdgeStyle;rounded=0;orthogonalLoop=1;jettySize=auto;html=1;exitX=0.5;exitY=1;exitDx=0;exitDy=0;entryX=1;entryY=0.5;entryDx=0;entryDy=0;fontSize=26;" parent="1" source="OxoNi5qvrJBeRdZsODT2-70" target="OxoNi5qvrJBeRdZsODT2-77" edge="1">
          <mxGeometry relative="1" as="geometry" />
        </mxCell>
        <mxCell id="wUONexCnlZndCB9AWCZm-19" style="edgeStyle=orthogonalEdgeStyle;rounded=0;orthogonalLoop=1;jettySize=auto;html=1;exitX=0.5;exitY=1;exitDx=0;exitDy=0;entryX=1;entryY=0.5;entryDx=0;entryDy=0;fontSize=26;" parent="1" source="OxoNi5qvrJBeRdZsODT2-70" target="OxoNi5qvrJBeRdZsODT2-79" edge="1">
          <mxGeometry relative="1" as="geometry" />
        </mxCell>
        <mxCell id="wUONexCnlZndCB9AWCZm-20" style="edgeStyle=orthogonalEdgeStyle;rounded=0;orthogonalLoop=1;jettySize=auto;html=1;exitX=0.5;exitY=1;exitDx=0;exitDy=0;entryX=1;entryY=0.5;entryDx=0;entryDy=0;fontSize=26;" parent="1" source="OxoNi5qvrJBeRdZsODT2-70" target="OxoNi5qvrJBeRdZsODT2-81" edge="1">
          <mxGeometry relative="1" as="geometry" />
        </mxCell>
        <mxCell id="NxvaMUHdAj3nQbAcuZh8-3" style="edgeStyle=orthogonalEdgeStyle;rounded=0;orthogonalLoop=1;jettySize=auto;html=1;exitX=0.5;exitY=1;exitDx=0;exitDy=0;entryX=1;entryY=0.5;entryDx=0;entryDy=0;" parent="1" source="OxoNi5qvrJBeRdZsODT2-70" target="NxvaMUHdAj3nQbAcuZh8-2" edge="1">
          <mxGeometry relative="1" as="geometry" />
        </mxCell>
        <mxCell id="NxvaMUHdAj3nQbAcuZh8-5" style="edgeStyle=orthogonalEdgeStyle;rounded=0;orthogonalLoop=1;jettySize=auto;html=1;exitX=0.5;exitY=1;exitDx=0;exitDy=0;entryX=1;entryY=0.5;entryDx=0;entryDy=0;" parent="1" source="OxoNi5qvrJBeRdZsODT2-70" target="NxvaMUHdAj3nQbAcuZh8-4" edge="1">
          <mxGeometry relative="1" as="geometry" />
        </mxCell>
        <mxCell id="OxoNi5qvrJBeRdZsODT2-70" value="Operations" style="whiteSpace=wrap;html=1;rounded=1;shadow=0;strokeWidth=1;fontSize=26;align=center;fillColor=#6BE6FF;strokeColor=#666666;fontFamily=CMU Serif;fontSource=https%3A%2F%2Ffont.download%2Ffont%2Fcmu-serif;fontStyle=1" parent="1" vertex="1">
          <mxGeometry x="2980" y="450" width="275" height="50" as="geometry" />
        </mxCell>
        <mxCell id="OxoNi5qvrJBeRdZsODT2-75" value="Data processing &amp;amp;&amp;nbsp;&lt;span style=&quot;background-color: transparent; color: light-dark(rgb(0, 0, 0), rgb(255, 255, 255));&quot;&gt;analysis&lt;/span&gt;" style="whiteSpace=wrap;html=1;rounded=1;shadow=0;strokeWidth=1;fontSize=26;align=center;fillColor=#6BE6FF;strokeColor=#666666;fontFamily=CMU Serif;fontSource=https%3A%2F%2Ffont.download%2Ffont%2Fcmu-serif;fontStyle=1" parent="1" vertex="1">
          <mxGeometry x="2510" y="450" width="395" height="50" as="geometry" />
        </mxCell>
        <mxCell id="wUONexCnlZndCB9AWCZm-8" style="edgeStyle=orthogonalEdgeStyle;rounded=0;orthogonalLoop=1;jettySize=auto;html=1;exitX=0.5;exitY=1;exitDx=0;exitDy=0;entryX=1;entryY=0.5;entryDx=0;entryDy=0;fontSize=26;" parent="1" source="wUONexCnlZndCB9AWCZm-1" target="wUONexCnlZndCB9AWCZm-5" edge="1">
          <mxGeometry relative="1" as="geometry" />
        </mxCell>
        <mxCell id="wUONexCnlZndCB9AWCZm-9" style="edgeStyle=orthogonalEdgeStyle;rounded=0;orthogonalLoop=1;jettySize=auto;html=1;exitX=0.5;exitY=1;exitDx=0;exitDy=0;entryX=1;entryY=0.5;entryDx=0;entryDy=0;fontSize=26;" parent="1" source="wUONexCnlZndCB9AWCZm-1" target="wUONexCnlZndCB9AWCZm-6" edge="1">
          <mxGeometry relative="1" as="geometry" />
        </mxCell>
        <mxCell id="wUONexCnlZndCB9AWCZm-10" style="edgeStyle=orthogonalEdgeStyle;rounded=0;orthogonalLoop=1;jettySize=auto;html=1;exitX=0.5;exitY=1;exitDx=0;exitDy=0;entryX=1;entryY=0.5;entryDx=0;entryDy=0;fontSize=26;" parent="1" source="wUONexCnlZndCB9AWCZm-1" target="wUONexCnlZndCB9AWCZm-7" edge="1">
          <mxGeometry relative="1" as="geometry" />
        </mxCell>
        <mxCell id="wUONexCnlZndCB9AWCZm-1" value="Instruments" style="whiteSpace=wrap;html=1;rounded=1;shadow=0;strokeWidth=1;fontSize=26;align=center;fillColor=#BBEAFF;strokeColor=#666666;fontFamily=CMU Serif;fontSource=https%3A%2F%2Ffont.download%2Ffont%2Fcmu-serif;" parent="1" vertex="1">
          <mxGeometry x="1390" y="580" width="165" height="90" as="geometry" />
        </mxCell>
        <mxCell id="wUONexCnlZndCB9AWCZm-5" value="In-orbit calibration" style="whiteSpace=wrap;html=1;rounded=1;shadow=0;strokeWidth=1;fontSize=26;align=center;fontFamily=CMU Serif;fontSource=https%3A%2F%2Ffont.download%2Ffont%2Fcmu-serif;fillColor=light-dark(#E6F6FF,#242424);strokeColor=default;fontColor=light-dark(#000000, #c1c1c1);gradientColor=none;fillStyle=auto;" parent="1" vertex="1">
          <mxGeometry x="1240" y="720" width="165" height="90" as="geometry" />
        </mxCell>
        <mxCell id="wUONexCnlZndCB9AWCZm-6" value="Instrument&lt;div&gt;operation&lt;/div&gt;" style="whiteSpace=wrap;html=1;rounded=1;shadow=0;strokeWidth=1;fontSize=26;align=center;fontFamily=CMU Serif;fontSource=https%3A%2F%2Ffont.download%2Ffont%2Fcmu-serif;fillColor=light-dark(#E6F6FF,#242424);strokeColor=default;fontColor=light-dark(#000000, #c1c1c1);gradientColor=none;fillStyle=auto;" parent="1" vertex="1">
          <mxGeometry x="1240" y="840" width="165" height="90" as="geometry" />
        </mxCell>
        <mxCell id="wUONexCnlZndCB9AWCZm-7" value="Instrument status check" style="whiteSpace=wrap;html=1;rounded=1;shadow=0;strokeWidth=1;fontSize=26;align=center;fontFamily=CMU Serif;fontSource=https%3A%2F%2Ffont.download%2Ffont%2Fcmu-serif;fillColor=light-dark(#E6F6FF,#242424);strokeColor=default;fontColor=light-dark(#000000, #c1c1c1);gradientColor=none;fillStyle=auto;" parent="1" vertex="1">
          <mxGeometry x="1240" y="960" width="165" height="90" as="geometry" />
        </mxCell>
        <mxCell id="NxvaMUHdAj3nQbAcuZh8-2" value="Science planning" style="whiteSpace=wrap;html=1;rounded=1;shadow=0;strokeWidth=1;fontSize=26;align=center;fillColor=#BBEAFF;strokeColor=#666666;fontFamily=CMU Serif;fontSource=https%3A%2F%2Ffont.download%2Ffont%2Fcmu-serif;" parent="1" vertex="1">
          <mxGeometry x="2771" y="920" width="283" height="90" as="geometry" />
        </mxCell>
        <mxCell id="NxvaMUHdAj3nQbAcuZh8-4" value="Relay coordination" style="whiteSpace=wrap;html=1;rounded=1;shadow=0;strokeWidth=1;fontSize=26;align=center;fillColor=#BBEAFF;strokeColor=#666666;fontFamily=CMU Serif;fontSource=https%3A%2F%2Ffont.download%2Ffont%2Fcmu-serif;" parent="1" vertex="1">
          <mxGeometry x="2771" y="1040" width="283" height="90" as="geometry" />
        </mxCell>
        <mxCell id="OxoNi5qvrJBeRdZsODT2-77" value="Uplink/Downlink&lt;div&gt;support&lt;/div&gt;" style="whiteSpace=wrap;html=1;rounded=1;shadow=0;strokeWidth=1;fontSize=26;align=center;fillColor=#BBEAFF;strokeColor=#666666;fontFamily=CMU Serif;fontSource=https%3A%2F%2Ffont.download%2Ffont%2Fcmu-serif;" parent="1" vertex="1">
          <mxGeometry x="2771" y="570" width="283" height="90" as="geometry" />
        </mxCell>
        <mxCell id="OxoNi5qvrJBeRdZsODT2-79" value="Telemetry monitoring" style="whiteSpace=wrap;html=1;rounded=1;shadow=0;strokeWidth=1;fontSize=26;align=center;fillColor=#BBEAFF;strokeColor=#666666;fontFamily=CMU Serif;fontSource=https%3A%2F%2Ffont.download%2Ffont%2Fcmu-serif;" parent="1" vertex="1">
          <mxGeometry x="2771" y="685" width="283" height="90" as="geometry" />
        </mxCell>
        <mxCell id="OxoNi5qvrJBeRdZsODT2-81" value="Mission planning" style="whiteSpace=wrap;html=1;rounded=1;shadow=0;strokeWidth=1;fontSize=26;align=center;fillColor=#BBEAFF;strokeColor=#666666;fontFamily=CMU Serif;fontSource=https%3A%2F%2Ffont.download%2Ffont%2Fcmu-serif;" parent="1" vertex="1">
          <mxGeometry x="2771" y="800" width="283" height="90" as="geometry" />
        </mxCell>
        <mxCell id="NxvaMUHdAj3nQbAcuZh8-7" value="" style="group" parent="1" vertex="1" connectable="0">
          <mxGeometry x="1440" y="340" width="1727" height="50" as="geometry" />
        </mxCell>
        <mxCell id="OxoNi5qvrJBeRdZsODT2-56" value="Ground" style="whiteSpace=wrap;html=1;rounded=1;shadow=0;strokeWidth=1;fontSize=33;align=center;fontFamily=CMU Serif;fontSource=https%3A%2F%2Ffont.download%2Ffont%2Fcmu-serif;fontStyle=3" parent="NxvaMUHdAj3nQbAcuZh8-7" vertex="1">
          <mxGeometry x="1452" width="275" height="50" as="geometry" />
        </mxCell>
        <mxCell id="OxoNi5qvrJBeRdZsODT2-58" value="Spacecraft" style="whiteSpace=wrap;html=1;rounded=1;shadow=0;strokeWidth=1;fontSize=33;align=center;fontFamily=CMU Serif;fontSource=https%3A%2F%2Ffont.download%2Ffont%2Fcmu-serif;fontStyle=3" parent="NxvaMUHdAj3nQbAcuZh8-7" vertex="1">
          <mxGeometry width="275" height="50" as="geometry" />
        </mxCell>
        <mxCell id="OxoNi5qvrJBeRdZsODT2-7" value="Maintain trajectory" style="whiteSpace=wrap;html=1;rounded=1;shadow=0;strokeWidth=1;fontSize=26;align=center;fillColor=#BBEAFF;strokeColor=#666666;fontFamily=CMU Serif;fontSource=https%3A%2F%2Ffont.download%2Ffont%2Fcmu-serif;" parent="1" vertex="1">
          <mxGeometry x="848" y="820" width="262.00000000000006" height="90" as="geometry" />
        </mxCell>
        <mxCell id="OxoNi5qvrJBeRdZsODT2-10" value="Injection to&lt;div&gt;Mars orbit&lt;/div&gt;" style="whiteSpace=wrap;html=1;rounded=1;shadow=0;strokeWidth=1;fontSize=26;align=center;fillColor=#BBEAFF;strokeColor=#666666;fontFamily=CMU Serif;fontSource=https%3A%2F%2Ffont.download%2Ffont%2Fcmu-serif;" parent="1" vertex="1">
          <mxGeometry x="848" y="940" width="262.00000000000006" height="90" as="geometry" />
        </mxCell>
        <mxCell id="OxoNi5qvrJBeRdZsODT2-12" value="Earth orbit injection" style="whiteSpace=wrap;html=1;rounded=1;shadow=0;strokeWidth=1;fontSize=26;align=center;fillColor=#BBEAFF;strokeColor=#666666;fontFamily=CMU Serif;fontSource=https%3A%2F%2Ffont.download%2Ffont%2Fcmu-serif;" parent="1" vertex="1">
          <mxGeometry x="848" y="576" width="262.00000000000006" height="90" as="geometry" />
        </mxCell>
        <mxCell id="OxoNi5qvrJBeRdZsODT2-84" value="Transition to&lt;div&gt;primary science orbit&lt;/div&gt;" style="whiteSpace=wrap;html=1;rounded=1;shadow=0;strokeWidth=1;fontSize=26;align=center;fillColor=#BBEAFF;strokeColor=#666666;fontFamily=CMU Serif;fontSource=https%3A%2F%2Ffont.download%2Ffont%2Fcmu-serif;" parent="1" vertex="1">
          <mxGeometry x="848" y="1060" width="262.00000000000006" height="90" as="geometry" />
        </mxCell>
        <mxCell id="OxoNi5qvrJBeRdZsODT2-87" value="Switch to/from&lt;div&gt;relay orbit&lt;/div&gt;" style="whiteSpace=wrap;html=1;rounded=1;shadow=0;strokeWidth=1;fontSize=26;align=center;fillColor=#BBEAFF;strokeColor=#666666;fontFamily=CMU Serif;fontSource=https%3A%2F%2Ffont.download%2Ffont%2Fcmu-serif;" parent="1" vertex="1">
          <mxGeometry x="848" y="1180" width="262.00000000000006" height="90" as="geometry" />
        </mxCell>
        <mxCell id="NxvaMUHdAj3nQbAcuZh8-8" value="Begin interplanetary cruise" style="whiteSpace=wrap;html=1;rounded=1;shadow=0;strokeWidth=1;fontSize=26;align=center;fillColor=#BBEAFF;strokeColor=#666666;fontFamily=CMU Serif;fontSource=https%3A%2F%2Ffont.download%2Ffont%2Fcmu-serif;" parent="1" vertex="1">
          <mxGeometry x="848" y="700" width="262.00000000000006" height="90" as="geometry" />
        </mxCell>
        <mxCell id="NxvaMUHdAj3nQbAcuZh8-11" value="Mission conclusion" style="whiteSpace=wrap;html=1;rounded=1;shadow=0;strokeWidth=1;fontSize=26;align=center;fillColor=#BBEAFF;strokeColor=#666666;fontFamily=CMU Serif;fontSource=https%3A%2F%2Ffont.download%2Ffont%2Fcmu-serif;" parent="1" vertex="1">
          <mxGeometry x="1250" y="1180" width="262.00000000000006" height="90" as="geometry" />
        </mxCell>
      </root>
    </mxGraphModel>
  </diagram>
</mxfile>
